<svg xmlns="http://www.w3.org/2000/svg" width="1000" height="420" viewBox="0 0 1000 420">
<rect width="100%" height="100%" fill="#f8fafc"/>
<text x="500.0" y="32.0" font-size="20" font-family="Arial, sans-serif" text-anchor="middle">Average FFT Spectrum: 260630_0020.wav</text>
<text x="500.0" y="52.0" font-size="12" font-family="Arial, sans-serif" text-anchor="middle">FFT size 8192, peak 5.86 Hz</text>
<line x1="78" y1="58" x2="78" y2="356" stroke="#334155"/>
<line x1="78" y1="356" x2="966" y2="356" stroke="#334155"/>
<text x="500.0" y="408.0" font-size="13" font-family="Arial, sans-serif" text-anchor="middle">Frequency (Hz)</text>
<text x="22.0" y="207.0" font-size="13" font-family="Arial, sans-serif" text-anchor="middle">Mean magnitude</text>
<line x1="78.0" y1="58" x2="78.0" y2="362" stroke="#cbd5e1"/>
<text x="78.0" y="380.0" font-size="11" font-family="Arial, sans-serif" text-anchor="middle">0</text>
<line x1="72" y1="356.0" x2="966" y2="356.0" stroke="#cbd5e1"/>
<text x="66.0" y="360.0" font-size="11" font-family="Arial, sans-serif" text-anchor="end">0.0</text>
<line x1="255.6" y1="58" x2="255.6" y2="362" stroke="#cbd5e1"/>
<text x="255.6" y="380.0" font-size="11" font-family="Arial, sans-serif" text-anchor="middle">80</text>
<line x1="72" y1="296.4" x2="966" y2="296.4" stroke="#cbd5e1"/>
<text x="66.0" y="300.4" font-size="11" font-family="Arial, sans-serif" text-anchor="end">16.3</text>
<line x1="433.2" y1="58" x2="433.2" y2="362" stroke="#cbd5e1"/>
<text x="433.2" y="380.0" font-size="11" font-family="Arial, sans-serif" text-anchor="middle">160</text>
<line x1="72" y1="236.8" x2="966" y2="236.8" stroke="#cbd5e1"/>
<text x="66.0" y="240.8" font-size="11" font-family="Arial, sans-serif" text-anchor="end">32.7</text>
<line x1="610.8" y1="58" x2="610.8" y2="362" stroke="#cbd5e1"/>
<text x="610.8" y="380.0" font-size="11" font-family="Arial, sans-serif" text-anchor="middle">240</text>
<line x1="72" y1="177.2" x2="966" y2="177.2" stroke="#cbd5e1"/>
<text x="66.0" y="181.2" font-size="11" font-family="Arial, sans-serif" text-anchor="end">49.0</text>
<line x1="788.4" y1="58" x2="788.4" y2="362" stroke="#cbd5e1"/>
<text x="788.4" y="380.0" font-size="11" font-family="Arial, sans-serif" text-anchor="middle">320</text>
<line x1="72" y1="117.6" x2="966" y2="117.6" stroke="#cbd5e1"/>
<text x="66.0" y="121.6" font-size="11" font-family="Arial, sans-serif" text-anchor="end">65.4</text>
<line x1="966.0" y1="58" x2="966.0" y2="362" stroke="#cbd5e1"/>
<text x="966.0" y="380.0" font-size="11" font-family="Arial, sans-serif" text-anchor="middle">400</text>
<line x1="72" y1="58.0" x2="966" y2="58.0" stroke="#cbd5e1"/>
<text x="66.0" y="62.0" font-size="11" font-family="Arial, sans-serif" text-anchor="end">81.7</text>
<polyline points="78.0,58.0 91.0,77.8 104.0,179.5 117.0,225.6 130.0,253.7 143.0,254.6 156.0,249.4 169.1,251.1 182.1,242.5 195.1,279.5 208.1,293.8 221.1,304.1 234.1,313.8 247.1,298.6 260.1,265.3 273.1,301.7 286.1,319.6 299.1,320.7 312.1,325.9 325.1,330.4 338.2,331.2 351.2,336.5 364.2,342.4 377.2,328.9 390.2,328.6 403.2,334.9 416.2,333.6 429.2,333.4 442.2,333.3 455.2,336.6 468.2,340.7 481.2,344.5 494.2,344.8 507.3,345.2 520.3,345.8 533.3,347.5 546.3,349.7 559.3,348.1 572.3,347.1 585.3,350.0 598.3,351.4 611.3,351.5 624.3,350.3 637.3,351.7 650.3,351.8 663.4,351.8 676.4,351.9 689.4,352.5 702.4,352.5 715.4,351.7 728.4,352.1 741.4,351.7 754.4,350.8 767.4,351.7 780.4,353.3 793.4,353.2 806.4,352.1 819.4,350.7 832.5,351.1 845.5,352.1 858.5,352.6 871.5,352.3 884.5,350.8 897.5,351.7 910.5,352.9 923.5,352.1 936.5,351.0 949.5,351.4 962.5,352.8" fill="none" stroke="#0f766e" stroke-width="1.5"/>
</svg>