<svg xmlns="http://www.w3.org/2000/svg" width="1000" height="420" viewBox="0 0 1000 420">
<rect width="100%" height="100%" fill="#f8fafc"/>
<text x="500.0" y="32.0" font-size="20" font-family="Arial, sans-serif" text-anchor="middle">Average FFT Spectrum: 260630_0020.wav</text>
<text x="500.0" y="52.0" font-size="12" font-family="Arial, sans-serif" text-anchor="middle">FFT size 8192, peak 5.86 Hz, range 0-400 Hz - original relevant range</text>
<line x1="112" y1="58" x2="112" y2="356" stroke="#334155"/>
<line x1="112" y1="356" x2="966" y2="356" stroke="#334155"/>
<text x="500.0" y="408.0" font-size="13" font-family="Arial, sans-serif" text-anchor="middle">Frequency (Hz)</text>
<text x="32.0" y="207.0" font-size="13" font-family="Arial, sans-serif" text-anchor="middle">Mean magnitude</text>
<line x1="112.0" y1="58" x2="112.0" y2="362" stroke="#cbd5e1"/>
<text x="112.0" y="380.0" font-size="11" font-family="Arial, sans-serif" text-anchor="middle">0</text>
<line x1="106" y1="356.0" x2="966" y2="356.0" stroke="#cbd5e1"/>
<text x="100.0" y="360.0" font-size="11" font-family="Arial, sans-serif" text-anchor="end">0.0</text>
<line x1="282.8" y1="58" x2="282.8" y2="362" stroke="#cbd5e1"/>
<text x="282.8" y="380.0" font-size="11" font-family="Arial, sans-serif" text-anchor="middle">80</text>
<line x1="106" y1="296.4" x2="966" y2="296.4" stroke="#cbd5e1"/>
<text x="100.0" y="300.4" font-size="11" font-family="Arial, sans-serif" text-anchor="end">16.3</text>
<line x1="453.6" y1="58" x2="453.6" y2="362" stroke="#cbd5e1"/>
<text x="453.6" y="380.0" font-size="11" font-family="Arial, sans-serif" text-anchor="middle">160</text>
<line x1="106" y1="236.8" x2="966" y2="236.8" stroke="#cbd5e1"/>
<text x="100.0" y="240.8" font-size="11" font-family="Arial, sans-serif" text-anchor="end">32.7</text>
<line x1="624.4" y1="58" x2="624.4" y2="362" stroke="#cbd5e1"/>
<text x="624.4" y="380.0" font-size="11" font-family="Arial, sans-serif" text-anchor="middle">240</text>
<line x1="106" y1="177.2" x2="966" y2="177.2" stroke="#cbd5e1"/>
<text x="100.0" y="181.2" font-size="11" font-family="Arial, sans-serif" text-anchor="end">49.0</text>
<line x1="795.2" y1="58" x2="795.2" y2="362" stroke="#cbd5e1"/>
<text x="795.2" y="380.0" font-size="11" font-family="Arial, sans-serif" text-anchor="middle">320</text>
<line x1="106" y1="117.6" x2="966" y2="117.6" stroke="#cbd5e1"/>
<text x="100.0" y="121.6" font-size="11" font-family="Arial, sans-serif" text-anchor="end">65.4</text>
<line x1="966.0" y1="58" x2="966.0" y2="362" stroke="#cbd5e1"/>
<text x="966.0" y="380.0" font-size="11" font-family="Arial, sans-serif" text-anchor="middle">400</text>
<line x1="106" y1="58.0" x2="966" y2="58.0" stroke="#cbd5e1"/>
<text x="100.0" y="62.0" font-size="11" font-family="Arial, sans-serif" text-anchor="end">81.7</text>
<polyline points="112.0,58.0 124.5,77.8 137.0,179.5 149.5,225.6 162.0,253.7 174.5,254.6 187.1,249.4 199.6,251.1 212.1,242.5 224.6,279.5 237.1,293.8 249.6,304.1 262.1,313.8 274.6,298.6 287.1,265.3 299.6,301.7 312.2,319.6 324.7,320.7 337.2,325.9 349.7,330.4 362.2,331.2 374.7,336.5 387.2,342.4 399.7,328.9 412.2,328.6 424.7,334.9 437.3,333.6 449.8,333.4 462.3,333.3 474.8,336.6 487.3,340.7 499.8,344.5 512.3,344.8 524.8,345.2 537.3,345.8 549.8,347.5 562.4,349.7 574.9,348.1 587.4,347.1 599.9,350.0 612.4,351.4 624.9,351.5 637.4,350.3 649.9,351.7 662.4,351.8 674.9,351.8 687.4,351.9 700.0,352.5 712.5,352.5 725.0,351.7 737.5,352.1 750.0,351.7 762.5,350.8 775.0,351.7 787.5,353.3 800.0,353.2 812.5,352.1 825.1,350.7 837.6,351.1 850.1,352.1 862.6,352.6 875.1,352.3 887.6,350.8 900.1,351.7 912.6,352.9 925.1,352.1 937.6,351.0 950.2,351.4 962.7,352.8" fill="none" stroke="#0f766e" stroke-width="1.5"/>
</svg>