<svg xmlns="http://www.w3.org/2000/svg" width="900" height="560" viewBox="0 0 900 560">
<rect width="100%" height="100%" fill="#f8fafc"/>
<text x="450.0" y="30.0" font-size="22" font-family="Arial, sans-serif" text-anchor="middle">Full-File Dominant Frequency by WAV File</text>
<line x1="82" y1="56" x2="82" y2="412" stroke="#334155"/>
<line x1="82" y1="412" x2="868" y2="412" stroke="#334155"/>
<text x="22.0" y="234.0" font-size="13" font-family="Arial, sans-serif" text-anchor="middle">Hz</text>
<line x1="76" y1="412.0" x2="868" y2="412.0" stroke="#cbd5e1"/>
<text x="70.0" y="416.0" font-size="11" font-family="Arial, sans-serif" text-anchor="end">0</text>
<line x1="76" y1="340.8" x2="868" y2="340.8" stroke="#cbd5e1"/>
<text x="70.0" y="344.8" font-size="11" font-family="Arial, sans-serif" text-anchor="end">40</text>
<line x1="76" y1="269.6" x2="868" y2="269.6" stroke="#cbd5e1"/>
<text x="70.0" y="273.6" font-size="11" font-family="Arial, sans-serif" text-anchor="end">80</text>
<line x1="76" y1="198.4" x2="868" y2="198.4" stroke="#cbd5e1"/>
<text x="70.0" y="202.4" font-size="11" font-family="Arial, sans-serif" text-anchor="end">120</text>
<line x1="76" y1="127.2" x2="868" y2="127.2" stroke="#cbd5e1"/>
<text x="70.0" y="131.2" font-size="11" font-family="Arial, sans-serif" text-anchor="end">160</text>
<line x1="76" y1="56.0" x2="868" y2="56.0" stroke="#cbd5e1"/>
<text x="70.0" y="60.0" font-size="11" font-family="Arial, sans-serif" text-anchor="end">200</text>
<rect x="100.0" y="339.0" width="135.6" height="73.0" fill="#2563eb" rx="4"/>
<text x="167.8" y="331.0" font-size="11" font-family="Arial, sans-serif" text-anchor="middle">41.0</text>
<text x="167.8" y="432" font-size="11" font-family="Arial, sans-serif" text-anchor="end" transform="rotate(-45 167.8 432)">260630_0016.wav</text>
<rect x="253.6" y="339.0" width="135.6" height="73.0" fill="#2563eb" rx="4"/>
<text x="321.4" y="331.0" font-size="11" font-family="Arial, sans-serif" text-anchor="middle">41.0</text>
<text x="321.4" y="432" font-size="11" font-family="Arial, sans-serif" text-anchor="end" transform="rotate(-45 321.4 432)">260630_0017.wav</text>
<rect x="407.2" y="161.7" width="135.6" height="250.3" fill="#2563eb" rx="4"/>
<text x="475.0" y="153.7" font-size="11" font-family="Arial, sans-serif" text-anchor="middle">140.6</text>
<text x="475.0" y="432" font-size="11" font-family="Arial, sans-serif" text-anchor="end" transform="rotate(-45 475.0 432)">260630_0018.wav</text>
<rect x="560.8" y="370.3" width="135.6" height="41.7" fill="#2563eb" rx="4"/>
<text x="628.6" y="362.3" font-size="11" font-family="Arial, sans-serif" text-anchor="middle">23.4</text>
<text x="628.6" y="432" font-size="11" font-family="Arial, sans-serif" text-anchor="end" transform="rotate(-45 628.6 432)">260630_0019.wav</text>
<rect x="714.4" y="328.6" width="135.6" height="83.4" fill="#2563eb" rx="4"/>
<text x="782.2" y="320.6" font-size="11" font-family="Arial, sans-serif" text-anchor="middle">46.9</text>
<text x="782.2" y="432" font-size="11" font-family="Arial, sans-serif" text-anchor="end" transform="rotate(-45 782.2 432)">260630_0020.wav</text>
</svg>